<svg xmlns="http://www.w3.org/2000/svg" style="display: none;">
  <!-- Приклад іконки: зірочка -->
  <symbol id="icon-star" viewBox="0 0 24 24" fill="currentColor">
    <path d="M12 17.27L18.18 21l-1.64-7.03L22 9.24l-7.19-.61L12 2 9.19 8.63 2 9.24l5.46 4.73L5.82 21z"/>
  </symbol>
<symbol id="icon-code" viewBox="0 0 32 32">
<path d="M10.3 10l-2.54-2.48-7.18 7.16c-0.325 0.329-0.526 0.781-0.526 1.28s0.201 0.951 0.526 1.28l7.28 7.28 2.54-2.52-6-6zM31.5 14.62l-7.18-7.1-2.54 2.48 5.9 6-6 6 2.54 2.56 7.28-7.28c0.337-0.331 0.546-0.791 0.546-1.3s-0.209-0.969-0.546-1.3l-0-0zM11.26 27.56l3.48 0.88 6-24-3.52-0.88z"></path>
</symbol>
</svg>
